<svg width="114" height="114" viewBox="0 0 114 114" fill="none" xmlns="http://www.w3.org/2000/svg">
<circle cx="57" cy="57" r="57" fill="#383838"/>
<path fill-rule="evenodd" clip-rule="evenodd" d="M33.6666 57.0006C33.667 52.5103 34.9631 48.1154 37.3993 44.3434C39.8355 40.5714 43.3084 37.5825 47.4012 35.7353C51.494 33.8881 56.0329 33.261 60.4732 33.9294C64.9135 34.5979 69.0667 36.5333 72.4343 39.5035C75.8019 42.4738 78.241 46.3527 79.4588 50.6747C80.6766 54.9968 80.6214 59.5784 79.2999 63.8699C77.9783 68.1614 75.4466 71.9804 72.0084 74.8687C68.5703 77.757 64.3717 79.5919 59.9166 80.1531V62.834H65.7499C66.5235 62.834 67.2653 62.5267 67.8123 61.9797C68.3593 61.4327 68.6666 60.6909 68.6666 59.9173C68.6666 59.1438 68.3593 58.4019 67.8123 57.8549C67.2653 57.3079 66.5235 57.0006 65.7499 57.0006H59.9166V51.1673C59.9166 50.3938 60.2239 49.6519 60.7709 49.1049C61.3178 48.5579 62.0597 48.2506 62.8333 48.2506H64.2916C65.0651 48.2506 65.807 47.9434 66.354 47.3964C66.901 46.8494 67.2082 46.1075 67.2082 45.334C67.2082 44.5604 66.901 43.8186 66.354 43.2716C65.807 42.7246 65.0651 42.4173 64.2916 42.4173H62.8333C60.5126 42.4173 58.287 43.3392 56.6461 44.9801C55.0051 46.6211 54.0833 48.8467 54.0833 51.1673V57.0006H48.2499C47.4764 57.0006 46.7345 57.3079 46.1875 57.8549C45.6405 58.4019 45.3333 59.1438 45.3333 59.9173C45.3333 60.6909 45.6405 61.4327 46.1875 61.9797C46.7345 62.5267 47.4764 62.834 48.2499 62.834H54.0833V80.1531C48.4442 79.4427 43.2584 76.6985 39.4992 72.4356C35.74 68.1727 33.6661 62.6843 33.6666 57.0006ZM56.9999 86.1673C73.1087 86.1673 86.1666 73.1094 86.1666 57.0006C86.1666 40.8919 73.1087 27.834 56.9999 27.834C40.8912 27.834 27.8333 40.8919 27.8333 57.0006C27.8333 73.1094 40.8912 86.1673 56.9999 86.1673Z" fill="#FF6402"/>
</svg>
