<svg width="50" height="50" viewBox="0 0 50 50" fill="none" xmlns="http://www.w3.org/2000/svg">
<rect width="50" height="50" rx="25" fill="white"/>
<g clip-path="url(#clip0_223_32)">
<path d="M28.6667 25C28.6667 23.8498 28.2598 22.8678 27.446 22.054C26.6322 21.2402 25.6502 20.8333 24.5 20.8333C23.3498 20.8333 22.3678 21.2402 21.554 22.054C20.7402 22.8678 20.3333 23.8498 20.3333 25C20.3333 26.1502 20.7402 27.1322 21.554 27.946C22.3678 28.7598 23.3498 29.1667 24.5 29.1667C25.6502 29.1667 26.6322 28.7598 27.446 27.946C28.2598 27.1322 28.6667 26.1502 28.6667 25ZM30.9128 25C30.9128 26.7795 30.2888 28.2932 29.041 29.541C27.7932 30.7888 26.2795 31.4128 24.5 31.4128C22.7205 31.4128 21.2068 30.7888 19.959 29.541C18.7112 28.2932 18.0872 26.7795 18.0872 25C18.0872 23.2205 18.7112 21.7068 19.959 20.459C21.2068 19.2112 22.7205 18.5872 24.5 18.5872C26.2795 18.5872 27.7932 19.2112 29.041 20.459C30.2888 21.7068 30.9128 23.2205 30.9128 25ZM32.6706 18.3268C32.6706 18.7391 32.5241 19.0918 32.2311 19.3848C31.9382 19.6777 31.5855 19.8242 31.1732 19.8242C30.7608 19.8242 30.4082 19.6777 30.1152 19.3848C29.8223 19.0918 29.6758 18.7391 29.6758 18.3268C29.6758 17.9145 29.8223 17.5618 30.1152 17.2689C30.4082 16.9759 30.7608 16.8294 31.1732 16.8294C31.5855 16.8294 31.9382 16.9759 32.2311 17.2689C32.5241 17.5618 32.6706 17.9145 32.6706 18.3268ZM24.5 14.7461C24.424 14.7461 24.009 14.7434 23.2549 14.738C22.5008 14.7325 21.9284 14.7325 21.5378 14.738C21.1471 14.7434 20.6236 14.7597 19.9671 14.7868C19.3107 14.8139 18.7518 14.8682 18.2907 14.9495C17.8295 15.0309 17.4416 15.1313 17.127 15.2507C16.5844 15.4677 16.107 15.7823 15.6947 16.1947C15.2823 16.607 14.9677 17.0844 14.7507 17.627C14.6313 17.9416 14.5309 18.3295 14.4495 18.7907C14.3682 19.2518 14.3139 19.8107 14.2868 20.4671C14.2597 21.1236 14.2434 21.6471 14.238 22.0378C14.2325 22.4284 14.2325 23.0008 14.238 23.7549C14.2434 24.509 14.2461 24.924 14.2461 25C14.2461 25.076 14.2434 25.491 14.238 26.2451C14.2325 26.9992 14.2325 27.5716 14.238 27.9622C14.2434 28.3529 14.2597 28.8764 14.2868 29.5329C14.3139 30.1893 14.3682 30.7482 14.4495 31.2093C14.5309 31.6705 14.6313 32.0584 14.7507 32.373C14.9677 32.9156 15.2823 33.393 15.6947 33.8053C16.107 34.2177 16.5844 34.5323 17.127 34.7493C17.4416 34.8687 17.8295 34.9691 18.2907 35.0505C18.7518 35.1318 19.3107 35.1861 19.9671 35.2132C20.6236 35.2403 21.1471 35.2566 21.5378 35.262C21.9284 35.2675 22.5008 35.2675 23.2549 35.262C24.009 35.2566 24.424 35.2539 24.5 35.2539C24.576 35.2539 24.991 35.2566 25.7451 35.262C26.4992 35.2675 27.0716 35.2675 27.4622 35.262C27.8529 35.2566 28.3764 35.2403 29.0329 35.2132C29.6893 35.1861 30.2482 35.1318 30.7093 35.0505C31.1705 34.9691 31.5584 34.8687 31.873 34.7493C32.4156 34.5323 32.893 34.2177 33.3053 33.8053C33.7177 33.393 34.0323 32.9156 34.2493 32.373C34.3687 32.0584 34.4691 31.6705 34.5505 31.2093C34.6318 30.7482 34.6861 30.1893 34.7132 29.5329C34.7403 28.8764 34.7566 28.3529 34.762 27.9622C34.7675 27.5716 34.7675 26.9992 34.762 26.2451C34.7566 25.491 34.7539 25.076 34.7539 25C34.7539 24.924 34.7566 24.509 34.762 23.7549C34.7675 23.0008 34.7675 22.4284 34.762 22.0378C34.7566 21.6471 34.7403 21.1236 34.7132 20.4671C34.6861 19.8107 34.6318 19.2518 34.5505 18.7907C34.4691 18.3295 34.3687 17.9416 34.2493 17.627C34.0323 17.0844 33.7177 16.607 33.3053 16.1947C32.893 15.7823 32.4156 15.4677 31.873 15.2507C31.5584 15.1313 31.1705 15.0309 30.7093 14.9495C30.2482 14.8682 29.6893 14.8139 29.0329 14.7868C28.3764 14.7597 27.8529 14.7434 27.4622 14.738C27.0716 14.7325 26.4992 14.7325 25.7451 14.738C24.991 14.7434 24.576 14.7461 24.5 14.7461ZM37 25C37 27.4848 36.9729 29.2046 36.9186 30.1595C36.8101 32.4164 36.1374 34.1634 34.9004 35.4004C33.6634 36.6374 31.9164 37.3101 29.6595 37.4186C28.7046 37.4729 26.9848 37.5 24.5 37.5C22.0152 37.5 20.2954 37.4729 19.3405 37.4186C17.0836 37.3101 15.3366 36.6374 14.0996 35.4004C12.8626 34.1634 12.1899 32.4164 12.0814 30.1595C12.0271 29.2046 12 27.4848 12 25C12 22.5152 12.0271 20.7954 12.0814 19.8405C12.1899 17.5836 12.8626 15.8366 14.0996 14.5996C15.3366 13.3626 17.0836 12.6899 19.3405 12.5814C20.2954 12.5271 22.0152 12.5 24.5 12.5C26.9848 12.5 28.7046 12.5271 29.6595 12.5814C31.9164 12.6899 33.6634 13.3626 34.9004 14.5996C36.1374 15.8366 36.8101 17.5836 36.9186 19.8405C36.9729 20.7954 37 22.5152 37 25Z" fill="#FF6402"/>
</g>
<defs>
<clipPath id="clip0_223_32">
<rect width="25" height="25" fill="white" transform="translate(12 12.5)"/>
</clipPath>
</defs>
</svg>
