<svg width="114" height="114" viewBox="0 0 114 114" fill="none" xmlns="http://www.w3.org/2000/svg">
<circle cx="57" cy="57" r="57" fill="#383838"/>
<g clip-path="url(#clip0_272_393)">
<path d="M66.6667 57C66.6667 54.3316 65.7227 52.0534 63.8346 50.1654C61.9466 48.2773 59.6684 47.3333 57 47.3333C54.3316 47.3333 52.0534 48.2773 50.1654 50.1654C48.2773 52.0534 47.3333 54.3316 47.3333 57C47.3333 59.6684 48.2773 61.9466 50.1654 63.8346C52.0534 65.7227 54.3316 66.6667 57 66.6667C59.6684 66.6667 61.9466 65.7227 63.8346 63.8346C65.7227 61.9466 66.6667 59.6684 66.6667 57ZM71.8776 57C71.8776 61.1285 70.4301 64.6402 67.5352 67.5352C64.6402 70.4301 61.1285 71.8776 57 71.8776C52.8715 71.8776 49.3598 70.4301 46.4648 67.5352C43.5699 64.6402 42.1224 61.1285 42.1224 57C42.1224 52.8715 43.5699 49.3598 46.4648 46.4648C49.3598 43.5699 52.8715 42.1224 57 42.1224C61.1285 42.1224 64.6402 43.5699 67.5352 46.4648C70.4301 49.3598 71.8776 52.8715 71.8776 57ZM75.9557 41.5182C75.9557 42.4748 75.6159 43.293 74.9362 43.9727C74.2565 44.6523 73.4384 44.9922 72.4818 44.9922C71.5252 44.9922 70.707 44.6523 70.0273 43.9727C69.3477 43.293 69.0078 42.4748 69.0078 41.5182C69.0078 40.5616 69.3477 39.7435 70.0273 39.0638C70.707 38.3841 71.5252 38.0443 72.4818 38.0443C73.4384 38.0443 74.2565 38.3841 74.9362 39.0638C75.6159 39.7435 75.9557 40.5616 75.9557 41.5182ZM57 33.2109C56.8238 33.2109 55.8609 33.2046 54.1113 33.1921C52.3618 33.1795 51.0339 33.1795 50.1276 33.1921C49.2214 33.2046 48.0067 33.2424 46.4837 33.3053C44.9607 33.3683 43.6643 33.4941 42.5944 33.6829C41.5245 33.8717 40.6246 34.1046 39.8945 34.3815C38.6359 34.885 37.5282 35.615 36.5716 36.5716C35.615 37.5282 34.885 38.6359 34.3815 39.8945C34.1046 40.6246 33.8717 41.5245 33.6829 42.5944C33.4941 43.6643 33.3683 44.9607 33.3053 46.4837C33.2424 48.0067 33.2046 49.2214 33.1921 50.1276C33.1795 51.0339 33.1795 52.3618 33.1921 54.1113C33.2046 55.8609 33.2109 56.8238 33.2109 57C33.2109 57.1762 33.2046 58.1391 33.1921 59.8887C33.1795 61.6382 33.1795 62.9661 33.1921 63.8724C33.2046 64.7786 33.2424 65.9933 33.3053 67.5163C33.3683 69.0393 33.4941 70.3357 33.6829 71.4056C33.8717 72.4755 34.1046 73.3754 34.3815 74.1055C34.885 75.3642 35.615 76.4718 36.5716 77.4284C37.5282 78.385 38.6359 79.115 39.8945 79.6185C40.6246 79.8954 41.5245 80.1283 42.5944 80.3171C43.6643 80.5059 44.9607 80.6317 46.4837 80.6947C48.0067 80.7576 49.2214 80.7954 50.1276 80.8079C51.0339 80.8205 52.3618 80.8205 54.1113 80.8079C55.8609 80.7954 56.8238 80.7891 57 80.7891C57.1762 80.7891 58.1391 80.7954 59.8887 80.8079C61.6382 80.8205 62.9661 80.8205 63.8724 80.8079C64.7786 80.7954 65.9933 80.7576 67.5163 80.6947C69.0393 80.6317 70.3357 80.5059 71.4056 80.3171C72.4755 80.1283 73.3754 79.8954 74.1055 79.6185C75.3642 79.115 76.4718 78.385 77.4284 77.4284C78.385 76.4718 79.115 75.3642 79.6185 74.1055C79.8954 73.3754 80.1283 72.4755 80.3171 71.4056C80.5059 70.3357 80.6317 69.0393 80.6947 67.5163C80.7576 65.9933 80.7954 64.7786 80.8079 63.8724C80.8205 62.9661 80.8205 61.6382 80.8079 59.8887C80.7954 58.1391 80.7891 57.1762 80.7891 57C80.7891 56.8238 80.7954 55.8609 80.8079 54.1113C80.8205 52.3618 80.8205 51.0339 80.8079 50.1276C80.7954 49.2214 80.7576 48.0067 80.6947 46.4837C80.6317 44.9607 80.5059 43.6643 80.3171 42.5944C80.1283 41.5245 79.8954 40.6246 79.6185 39.8945C79.115 38.6359 78.385 37.5282 77.4284 36.5716C76.4718 35.615 75.3642 34.885 74.1055 34.3815C73.3754 34.1046 72.4755 33.8717 71.4056 33.6829C70.3357 33.4941 69.0393 33.3683 67.5163 33.3053C65.9933 33.2424 64.7786 33.2046 63.8724 33.1921C62.9661 33.1795 61.6382 33.1795 59.8887 33.1921C58.1391 33.2046 57.1762 33.2109 57 33.2109ZM86 57C86 62.7648 85.9371 66.7548 85.8112 68.9701C85.5595 74.2062 83.9987 78.2591 81.1289 81.1289C78.2591 83.9987 74.2062 85.5595 68.9701 85.8112C66.7548 85.9371 62.7648 86 57 86C51.2352 86 47.2452 85.9371 45.0299 85.8112C39.7938 85.5595 35.7409 83.9987 32.8711 81.1289C30.0013 78.2591 28.4405 74.2062 28.1888 68.9701C28.0629 66.7548 28 62.7648 28 57C28 51.2352 28.0629 47.2452 28.1888 45.0299C28.4405 39.7938 30.0013 35.7409 32.8711 32.8711C35.7409 30.0013 39.7938 28.4405 45.0299 28.1888C47.2452 28.0629 51.2352 28 57 28C62.7648 28 66.7548 28.0629 68.9701 28.1888C74.2062 28.4405 78.2591 30.0013 81.1289 32.8711C83.9987 35.7409 85.5595 39.7938 85.8112 45.0299C85.9371 47.2452 86 51.2352 86 57Z" fill="#FF6402"/>
</g>
<defs>
<clipPath id="clip0_272_393">
<rect width="58" height="58" fill="white" transform="translate(28 28)"/>
</clipPath>
</defs>
</svg>
