<svg width="70" height="70" viewBox="0 0 70 70" fill="none" xmlns="http://www.w3.org/2000/svg">
<path fill-rule="evenodd" clip-rule="evenodd" d="M35 5.83398C41.9619 5.83398 48.6387 8.5996 53.5616 13.5224C58.4844 18.4453 61.25 25.1221 61.25 32.084C61.25 41.0498 56.3617 48.3882 51.2108 53.6527C48.6374 56.2546 45.8294 58.6135 42.8225 60.6994L41.58 61.5452L40.9967 61.9332L39.8971 62.6332L38.9171 63.2311L37.7038 63.9369C36.8802 64.407 35.9483 64.6542 35 64.6542C34.0517 64.6542 33.1198 64.407 32.2963 63.9369L31.0829 63.2311L29.5663 62.2977L29.0062 61.9332L27.8104 61.1369C24.5666 58.9422 21.5451 56.4355 18.7892 53.6527C13.6383 48.3852 8.75 41.0498 8.75 32.084C8.75 25.1221 11.5156 18.4453 16.4384 13.5224C21.3613 8.5996 28.0381 5.83398 35 5.83398ZM35 11.6673C29.5852 11.6673 24.3921 13.8184 20.5632 17.6472C16.7344 21.4761 14.5833 26.6691 14.5833 32.084C14.5833 38.8565 18.2933 44.8007 22.9571 49.5723C24.9624 51.6023 27.1298 53.4654 29.4379 55.1432L30.7737 56.094C31.2054 56.3954 31.6206 56.6754 32.0192 56.934L33.1567 57.6632L34.1571 58.2727L35 58.7657L36.3271 57.9811L37.3975 57.3102C37.9672 56.9486 38.5768 56.5432 39.2263 56.094L40.5621 55.1432C42.8702 53.4654 45.0376 51.6023 47.0429 49.5723C51.7067 44.8036 55.4167 38.8565 55.4167 32.084C55.4167 26.6691 53.2656 21.4761 49.4368 17.6472C45.6079 13.8184 40.4148 11.6673 35 11.6673ZM35 20.4173C38.0942 20.4173 41.0617 21.6465 43.2496 23.8344C45.4375 26.0223 46.6667 28.9898 46.6667 32.084C46.6667 35.1782 45.4375 38.1456 43.2496 40.3336C41.0617 42.5215 38.0942 43.7507 35 43.7507C31.9058 43.7507 28.9383 42.5215 26.7504 40.3336C24.5625 38.1456 23.3333 35.1782 23.3333 32.084C23.3333 28.9898 24.5625 26.0223 26.7504 23.8344C28.9383 21.6465 31.9058 20.4173 35 20.4173ZM35 26.2507C33.4529 26.2507 31.9692 26.8652 30.8752 27.9592C29.7812 29.0532 29.1667 30.5369 29.1667 32.084C29.1667 33.6311 29.7812 35.1148 30.8752 36.2088C31.9692 37.3027 33.4529 37.9173 35 37.9173C36.5471 37.9173 38.0308 37.3027 39.1248 36.2088C40.2188 35.1148 40.8333 33.6311 40.8333 32.084C40.8333 30.5369 40.2188 29.0532 39.1248 27.9592C38.0308 26.8652 36.5471 26.2507 35 26.2507Z" fill="#FF6402"/>
</svg>
