<svg width="70" height="70" viewBox="0 0 70 70" fill="none" xmlns="http://www.w3.org/2000/svg">
<path d="M39.4489 12.5584C39.5231 12.2808 39.6513 12.0206 39.8262 11.7925C40.0011 11.5645 40.2192 11.3731 40.468 11.2294C40.7169 11.0857 40.9916 10.9924 41.2765 10.9549C41.5615 10.9174 41.851 10.9364 42.1285 11.0108C46.1838 12.0688 49.8837 14.1888 52.8472 17.1523C55.8107 20.1158 57.9306 23.8157 58.9887 27.8709C59.0631 28.1485 59.0821 28.438 59.0446 28.7229C59.0071 29.0079 58.9138 29.2826 58.7701 29.5314C58.6264 29.7803 58.435 29.9984 58.207 30.1733C57.9789 30.3481 57.7187 30.4764 57.441 30.5506C57.2563 30.5992 57.0661 30.6241 56.875 30.6244C56.393 30.6244 55.9244 30.4652 55.5422 30.1715C55.16 29.8778 54.8855 29.466 54.7613 29.0002C53.8984 25.6898 52.1682 22.6694 49.7492 20.2503C47.3301 17.8312 44.3097 16.1011 40.9992 15.2381C40.7214 15.1642 40.4608 15.0361 40.2325 14.8614C40.0041 14.6866 39.8125 14.4686 39.6685 14.2197C39.5245 13.9708 39.431 13.696 39.3933 13.4109C39.3556 13.1259 39.3745 12.8362 39.4489 12.5584ZM38.8117 23.9881C42.5824 24.9944 45.0051 27.417 46.0114 31.1877C46.1355 31.6535 46.41 32.0653 46.7922 32.359C47.1744 32.6527 47.643 32.8119 48.125 32.8119C48.3161 32.8116 48.5063 32.7867 48.691 32.7381C48.9687 32.6639 49.2289 32.5356 49.457 32.3608C49.685 32.1859 49.8764 31.9678 50.0201 31.7189C50.1638 31.4701 50.2571 31.1954 50.2946 30.9104C50.3321 30.6255 50.3131 30.336 50.2387 30.0584C48.8387 24.8194 45.1801 21.1608 39.941 19.7608C39.3805 19.611 38.7833 19.6901 38.2811 19.9806C37.7788 20.2711 37.4125 20.7492 37.2627 21.3098C37.113 21.8704 37.192 22.4675 37.4825 22.9698C37.773 23.4721 38.2512 23.8384 38.8117 23.9881ZM61.2172 50.0604C60.7297 53.7655 58.91 57.1665 56.0982 59.6281C53.2864 62.0898 49.6746 63.4437 45.9375 63.437C24.2266 63.437 6.56252 45.7729 6.56252 24.0619C6.55583 20.3249 7.90972 16.7131 10.3713 13.9013C12.8329 11.0894 16.2339 9.26982 19.9391 8.78226C20.876 8.66786 21.8248 8.85954 22.6439 9.32869C23.4629 9.79785 24.1083 10.5193 24.4836 11.3854L30.2586 24.278V24.3108C30.546 24.9737 30.6646 25.6975 30.604 26.4175C30.5434 27.1376 30.3055 27.8313 29.9114 28.4369C29.8621 28.5108 29.8102 28.5791 29.7555 28.6475L24.0625 35.3959C26.1106 39.5577 30.4637 43.8725 34.6801 45.926L41.3356 40.2631C41.4009 40.2081 41.4694 40.157 41.5406 40.11C42.1457 39.7064 42.8419 39.4601 43.5662 39.3932C44.2904 39.3264 45.0199 39.4412 45.6887 39.7272L45.7242 39.7436L58.6059 45.5159C59.4735 45.8898 60.1967 46.5346 60.6674 47.3538C61.1381 48.173 61.331 49.1225 61.2172 50.0604ZM56.875 49.5135H56.8449L43.9934 43.7577L37.3352 49.4205C37.2707 49.4755 37.2032 49.5266 37.1328 49.5737C36.5033 49.9937 35.7755 50.2432 35.0206 50.2978C34.2658 50.3525 33.5097 50.2104 32.8262 49.8854C27.7047 47.4108 22.5996 42.344 20.1223 37.2772C19.7942 36.5987 19.647 35.8469 19.6949 35.0948C19.7429 34.3426 19.9842 33.6156 20.3957 32.9842C20.442 32.91 20.4941 32.8396 20.5516 32.7737L26.25 26.017L20.5078 13.1655C20.5067 13.1546 20.5067 13.1436 20.5078 13.1327C17.8562 13.4785 15.4216 14.7792 13.6599 16.791C11.8982 18.8028 10.9304 21.3878 10.9375 24.0619C10.9477 33.3414 14.6384 42.2379 21.2 48.7995C27.7616 55.3611 36.6581 59.0518 45.9375 59.062C48.61 59.0711 51.1943 58.1066 53.2073 56.3488C55.2203 54.5909 56.5241 52.1601 56.875 49.5108V49.5135Z" fill="#FF6402"/>
</svg>
