<svg width="80" height="80" viewBox="0 0 80 80" fill="none" xmlns="http://www.w3.org/2000/svg">
<path d="M9.97314 38.5859C9.97314 33.1459 11.3331 28.1059 14.0265 23.4925C16.7198 18.8792 20.3731 15.2259 24.9865 12.5325C29.5998 9.83919 34.6131 8.50586 40.0265 8.50586C44.0798 8.50586 47.9731 9.30586 51.6798 10.8792C55.3865 12.4525 58.5598 14.6125 61.2531 17.2792C63.9465 19.9459 66.0798 23.1459 67.6531 26.8792C69.2265 30.6125 70.0265 34.4792 70.0265 38.5859C70.0265 42.6392 69.2265 46.5325 67.6531 50.2392C66.0798 53.9459 63.9198 57.1459 61.2531 59.8125C58.5865 62.4792 55.3865 64.6125 51.6798 66.1859C47.9731 67.7592 44.1065 68.5592 40.0265 68.5592C35.9465 68.5592 32.0265 67.7592 28.3198 66.1859C24.6131 64.6125 21.4131 62.4525 18.7198 59.7859C16.0265 57.1192 13.9198 53.9192 12.3198 50.2392C10.7198 46.5592 9.97314 42.6659 9.97314 38.5859ZM16.5865 38.5859C16.5865 44.9059 18.8798 50.3992 23.4931 55.0659C28.1065 59.6792 33.5998 61.9725 40.0265 61.9725C44.2398 61.9725 48.1598 60.9325 51.7331 58.8259C55.3065 56.7192 58.1865 53.8925 60.2931 50.2925C62.3998 46.6925 63.4665 42.7992 63.4665 38.5859C63.4665 34.3725 62.3998 30.4525 60.2931 26.8525C58.1865 23.2525 55.3331 20.3992 51.7331 18.2925C48.1331 16.1859 44.2398 15.1459 40.0265 15.1459C35.8131 15.1459 31.8931 16.1859 28.3198 18.2925C24.7465 20.3992 21.8665 23.2525 19.7331 26.8525C17.5998 30.4525 16.5865 34.3725 16.5865 38.5859ZM37.7065 38.5859V20.8259C37.7065 20.2125 37.9198 19.6792 38.3465 19.2525C38.7731 18.8259 39.3065 18.6125 39.9198 18.6125C40.5331 18.6125 41.0665 18.8259 41.4931 19.2525C41.9198 19.6792 42.1331 20.2125 42.1331 20.8259V34.7192L49.5465 30.5325C50.0798 30.2125 50.6398 30.1325 51.2265 30.2925C52.1065 30.5325 52.2665 30.8259 52.5598 31.3859C52.8798 31.9192 52.9331 32.4792 52.7731 33.0659C52.6131 33.6525 52.2665 34.1325 51.7331 34.4259L41.3865 40.2125C40.984 40.5949 40.4483 40.8054 39.8931 40.7992C39.6024 40.804 39.3137 40.7498 39.0445 40.64C38.7752 40.5301 38.5311 40.3668 38.3267 40.1599C38.1223 39.9531 37.962 39.7069 37.8554 39.4364C37.7488 39.1659 37.6982 38.8765 37.7065 38.5859Z" fill="#FF6402"/>
</svg>
