<svg width="50" height="50" viewBox="0 0 50 50" fill="none" xmlns="http://www.w3.org/2000/svg">
<rect width="50" height="50" rx="25" fill="white"/>
<path d="M25.05 12.5001C18.225 12.5001 12.6625 18.0626 12.6625 24.8876C12.6625 27.0751 13.2375 29.2001 14.3125 31.0751L12.5625 37.5001L19.125 35.7751C20.9375 36.7626 22.975 37.2876 25.05 37.2876C31.875 37.2876 37.4375 31.7251 37.4375 24.9001C37.4375 21.5876 36.15 18.4751 33.8125 16.1376C32.6663 14.9802 31.3013 14.0625 29.7969 13.438C28.2925 12.8135 26.6789 12.4947 25.05 12.5001ZM25.0625 14.5876C27.8125 14.5876 30.3875 15.6626 32.3375 17.6126C33.2942 18.5695 34.0528 19.7057 34.5697 20.9562C35.0867 22.2067 35.3518 23.5469 35.35 24.9001C35.35 30.5751 30.725 35.1876 25.05 35.1876C23.2 35.1876 21.3875 34.7001 19.8125 33.7501L19.4375 33.5376L15.5375 34.5626L16.575 30.7626L16.325 30.3626C15.2932 28.7231 14.7471 26.8247 14.75 24.8876C14.7625 19.2126 19.375 14.5876 25.0625 14.5876ZM20.6625 19.1626C20.4625 19.1626 20.125 19.2376 19.8375 19.5501C19.5625 19.8626 18.75 20.6251 18.75 22.1376C18.75 23.6626 19.8625 25.1251 20 25.3376C20.175 25.5501 22.2 28.6751 25.3125 30.0001C26.05 30.3376 26.625 30.5251 27.075 30.6626C27.8125 30.9001 28.4875 30.8626 29.025 30.7876C29.625 30.7001 30.85 30.0376 31.1125 29.3126C31.375 28.5876 31.375 27.9751 31.3 27.8376C31.2125 27.7126 31.0125 27.6376 30.7 27.5001C30.3875 27.3251 28.8625 26.5751 28.5875 26.4751C28.3 26.3751 28.125 26.3251 27.8875 26.6251C27.6875 26.9376 27.0875 27.6376 26.9125 27.8376C26.725 28.0501 26.55 28.0751 26.25 27.9251C25.925 27.7626 24.925 27.4376 23.75 26.3876C22.825 25.5626 22.2125 24.5501 22.025 24.2376C21.875 23.9376 22.0125 23.7501 22.1625 23.6126C22.3 23.4751 22.5 23.2501 22.625 23.0626C22.7875 22.8876 22.8375 22.7501 22.9375 22.5501C23.0375 22.3376 22.9875 22.1626 22.9125 22.0126C22.8375 21.8751 22.2125 20.3251 21.95 19.7126C21.7 19.1126 21.45 19.1876 21.25 19.1751C21.075 19.1751 20.875 19.1626 20.6625 19.1626Z" fill="#FF6402"/>
</svg>
