<svg width="114" height="114" viewBox="0 0 114 114" fill="none" xmlns="http://www.w3.org/2000/svg">
<circle cx="57" cy="57" r="57" fill="#383838"/>
<path d="M57.1167 27.8341C41.1917 27.8341 28.2126 40.8133 28.2126 56.7383C28.2126 61.8425 29.5542 66.8008 32.0626 71.1758L27.9792 86.1675L43.2917 82.1425C47.5209 84.4466 52.2751 85.6716 57.1167 85.6716C73.0417 85.6716 86.0209 72.6925 86.0209 56.7675C86.0209 49.0383 83.0167 41.7758 77.5626 36.3216C74.8882 33.6211 71.7031 31.4799 68.1928 30.0227C64.6826 28.5655 60.9174 27.8216 57.1167 27.8341ZM57.1459 32.705C63.5626 32.705 69.5709 35.2133 74.1209 39.7633C76.3533 41.9961 78.1233 44.6473 79.3294 47.5652C80.5356 50.483 81.1543 53.6102 81.1501 56.7675C81.1501 70.0091 70.3584 80.7716 57.1167 80.7716C52.8001 80.7716 48.5709 79.6341 44.8959 77.4175L44.0209 76.9216L34.9209 79.3133L37.3417 70.4466L36.7584 69.5133C34.3508 65.6878 33.0766 61.2584 33.0834 56.7383C33.1126 43.4966 43.8751 32.705 57.1459 32.705ZM46.8792 43.38C46.4126 43.38 45.6251 43.555 44.9542 44.2841C44.3126 45.0133 42.4167 46.7925 42.4167 50.3216C42.4167 53.88 45.0126 57.2925 45.3334 57.7883C45.7417 58.2841 50.4667 65.5758 57.7292 68.6675C59.4501 69.455 60.7917 69.8925 61.8417 70.2133C63.5626 70.7675 65.1376 70.68 66.3917 70.505C67.7917 70.3008 70.6501 68.755 71.2626 67.0633C71.8751 65.3716 71.8751 63.9425 71.7001 63.6216C71.4959 63.33 71.0292 63.155 70.3001 62.8341C69.5709 62.4258 66.0126 60.6758 65.3709 60.4425C64.7001 60.2091 64.2917 60.0925 63.7376 60.7925C63.2709 61.5216 61.8709 63.155 61.4626 63.6216C61.0251 64.1175 60.6167 64.1758 59.9167 63.8258C59.1584 63.4466 56.8251 62.6883 54.0834 60.2383C51.9251 58.3133 50.4959 55.9508 50.0584 55.2216C49.7084 54.5216 50.0292 54.0841 50.3792 53.7633C50.7001 53.4425 51.1667 52.9175 51.4584 52.48C51.8376 52.0716 51.9542 51.7508 52.1876 51.2841C52.4209 50.7883 52.3042 50.38 52.1292 50.03C51.9542 49.7091 50.4959 46.0925 49.8834 44.6633C49.3001 43.2633 48.7167 43.4383 48.2501 43.4091C47.8417 43.4091 47.3751 43.38 46.8792 43.38Z" fill="#FF6402"/>
</svg>
